<svg xmlns="http://www.w3.org/2000/svg" width="94" height="94" fill="none" viewBox="0 0 94 94"><path fill="#77E1FF" d="M7.0038 0.333984H0.335938V73.667H7.0038V0.333984Z"/><path fill="#77E1FF" d="M20.3378 0.333984H13.6699V73.667H20.3378V0.333984Z"/><path fill="#77E1FF" d="M33.6698 0.333984H27.002V73.667H33.6698V0.333984Z"/><path fill="#77E1FF" d="M47.0038 0.333984H40.3359V73.667H47.0038V0.333984Z"/><path fill="#77E1FF" d="M60.3378 0.333984H53.6699V73.667H60.3378V0.333984Z"/><path fill="#77E1FF" d="M73.6698 0.333984H67.002V73.667H73.6698V0.333984Z"/><path fill="#161EDE" d="M27.0038 20.334H20.3359V93.667H27.0038V20.334Z"/><path fill="#161EDE" d="M40.3378 20.334H33.6699V93.667H40.3378V20.334Z"/><path fill="#161EDE" d="M53.6698 20.334H47.002V93.667H53.6698V20.334Z"/><path fill="#161EDE" d="M67.0038 20.334H60.3359V93.667H67.0038V20.334Z"/><path fill="#161EDE" d="M80.3378 20.334H73.6699V93.667H80.3378V20.334Z"/><path fill="#161EDE" d="M93.6698 20.334H87.002V93.667H93.6698V20.334Z"/></svg>